# xmcd
#
# Track frame offsets:
#	150
#	17566
#	36643
#	57346
#	68919
#	86623
#	99862
#	118234
#	132570
#	152662
#	166843
#	187783
#	202761
#	220757
#
# Disc length: 3125 seconds
#
# Revision: 0
# Processed by: cddbd v1.5.1PL2 Copyright (c) Steve Scherf et al.
# Submitted via: dBpowerAMP V4.0
#
DISCID=b90c330e
DTITLE=Michael Bublè - Michael Bublè and Spiderman Theme
DYEAR=2005
DGENRE=Blues
TTITLE0=Fever
TTITLE1=Moondance
TTITLE2=Kissing a fool
TTITLE3=For Once In My Life
TTITLE4=How can you mend a broken heart
TTITLE5=Summer wind
TTITLE6=You'll never find another love like mine
TTITLE7=Crazy little thing called love
TTITLE8=Put your head on my shoulder
TTITLE9=Away
TTITLE10=The way you look tonight
TTITLE11=Come fly with me
TTITLE12=That's all
TTITLE13=Spiderman theme
EXTD=
EXTT0=
EXTT1=
EXTT2=
EXTT3=
EXTT4=
EXTT5=
EXTT6=
EXTT7=
EXTT8=
EXTT9=
EXTT10=
EXTT11=
EXTT12=
EXTT13=
PLAYORDER=
